# xmcd
#
# Track frame offsets:
#	150
#	19506
#	39680
#	58764
#	78017
#	98036
#	117199
#	134695
#	155106
#
# Disc length: 2302
#
# Revision: 1
# Processed by: cddbd v1.5.1PL0 Copyright (c) Steve Scherf et al.
# Submitted via: CDex 1.51
# Normalized: r0:TRMNUM
#
DISCID=7008fc09
DTITLE=Luis Rafael - El mismo
DYEAR=2004
DGENRE=Merengue
TTITLE0=Luis Rafael - Yo no me dejo caer
TTITLE1=Luis Rafael - No te voy perdonar
TTITLE2=Luis Rafael - Pirulo
TTITLE3=Luis Rafael - Vacilon
TTITLE4=Luis Rafael - Esta si
TTITLE5=Luis Rafael - Mi angel
TTITLE6=Luis Rafael - Ahora voy yo
TTITLE7=Luis Rafael - Si tu no estas
TTITLE8=Luis Rafael - Te ves bien
EXTD=YEAR: 2004
EXTT0=
EXTT1=
EXTT2=
EXTT3=
EXTT4=
EXTT5=
EXTT6=
EXTT7=
EXTT8=
PLAYORDER=
